<?xml version="1.0"?>
<svg xmlns="http://www.w3.org/2000/svg" height="512px" viewBox="0 -5 452.00069 452" width="512px" class=""><g><path d="m396.207031 0h-340.40625c-14.800781-.0703125-29.015625 5.769531-39.492187 16.222656-10.472656 10.449219-16.3437502 24.652344-16.308594 39.453125v220.273438c-.0507812 14.839843 5.800781 29.089843 16.269531 39.605469 10.46875 10.515624 24.691407 16.433593 39.53125 16.445312h19.570313l24.175781 104.214844c.660156 2.910156 2.886719 5.207031 5.777344 5.957031 2.886719.75 5.953125-.175781 7.945312-2.398437l97.621094-107.773438h185.316406c14.835938-.015625 29.058594-5.933594 39.523438-16.449219 10.46875-10.515625 16.320312-24.761719 16.269531-39.601562v-220.273438c.039062-14.800781-5.832031-29-16.308594-39.453125-10.476562-10.453125-24.6875-16.2929685-39.484375-16.222656zm39.792969 275.949219c.058594 10.597656-4.109375 20.78125-11.578125 28.296875s-17.625 11.746094-28.222656 11.753906h-188.855469c-2.261719.011719-4.414062.976562-5.929688 2.660156l-89.742187 99.058594-22.15625-95.5c-.835937-3.628906-4.066406-6.207031-7.792969-6.21875h-25.921875c-10.597656-.007812-20.753906-4.238281-28.222656-11.753906s-11.632813-17.699219-11.578125-28.296875v-220.273438c-.042969-10.558593 4.140625-20.691406 11.617188-28.144531 7.480468-7.453125 17.625-11.605469 28.183593-11.53125h340.410157c10.554687-.070312 20.699218 4.082031 28.175781 11.53125 7.472656 7.453125 11.65625 17.585938 11.613281 28.144531zm0 0" data-original="#000000" class="active-path" data-old_color="#2c3e50" fill="#2c3e50"/><path d="m177.96875 110.402344-52.597656 52.597656 52.597656 52.601562 11.3125-11.316406-41.285156-41.285156 41.285156-41.285156zm0 0" data-original="#000000" class="active-path" data-old_color="#2c3e50" fill="#2c3e50"/><path d="m262.71875 121.714844 41.285156 41.285156-41.285156 41.285156 11.3125 11.316406 52.601562-52.601562-52.601562-52.597656zm0 0" data-original="#000000" class="active-path" data-old_color="#2c3e50" fill="#2c3e50"/><path d="m198.28125 234.53125 40-147.25 15.441406 4.195312-40 147.25zm0 0" data-original="#000000" class="active-path" data-old_color="#2c3e50" fill="#2c3e50"/></g> </svg>
