<?xml version="1.0" standalone="no"?><!-- Generator: Gravit.io --><svg xmlns="http://www.w3.org/2000/svg" xmlns:xlink="http://www.w3.org/1999/xlink" style="isolation:isolate" viewBox="0 0 800 357" width="800" height="357"><defs><clipPath id="_clipPath_5xd5YhWjyO3nqE6ye0r5PkB2cveTnmcJ"><rect width="800" height="357"/></clipPath></defs><g clip-path="url(#_clipPath_5xd5YhWjyO3nqE6ye0r5PkB2cveTnmcJ)"><g><g><path d=" M 703 360 L 649 223 L 635 255 L 586 137 L 557 202 L 430 40 L 342 163 L 305 128 L 239 211 L 211 175 L 103 366" fill="rgb(206,219,225)"/><path d=" M 270 357 L 255 231 L 116 357 L 270 357 Z " fill="rgb(177,195,202)"/><path d=" M 385 358 L 430 40 L 342 163 L 348 357 L 385 358 Z " fill="rgb(216,230,237)"/><path d=" M 277 358 L 305 128 L 239 211 L 238 357 L 277 358 Z " fill="rgb(216,230,237)"/><path d=" M 176 357 L 211 175 L 108 357 L 176 357 Z " fill="rgb(216,230,237)"/><path d=" M 572 357 L 586 137 L 557 202 L 557 357 L 572 357 Z " fill="rgb(216,230,237)"/><path d=" M 647 357 L 649 223 L 635 255 L 643 357 L 647 357 Z " fill="rgb(216,230,237)"/><path d=" M 678 357 L 569 244 L 536 283 L 502 167 L 452 317 L 371 159 L 315 270 L 255 231 L 116 357 L 678 357 Z " fill="rgb(158,177,184)"/><path d=" M 500 357 L 502 167 L 452 317 L 459 357 L 500 357 Z " fill="rgb(177,195,202)"/><path d=" M 586 357 L 569 244 L 536 283 L 549 357 L 586 357 Z " fill="rgb(177,195,202)"/><path d=" M 348 357 L 371 159 L 315 270 L 319 357 L 348 357 Z " fill="rgb(177,195,202)"/><path d=" M 116 357 L 255 231 L 266 357 L 116 357 Z " fill="rgb(177,195,202)"/><path d=" M 704 357 L 661 303 L 629 344 L 542 262 L 479 330 L 394 249 L 299 348 L 268 306 L 107 357 L 704 357 Z " fill="rgb(99,110,116)"/><path d=" M 531 357 L 542 262 L 479 330 L 475 357 L 531 357 Z " fill="rgb(104,115,122)"/><path d=" M 649 357 L 661 303 L 629 344 L 628 357 L 649 357 Z " fill="rgb(104,115,122)"/><path d=" M 420 357 L 394 249 L 299 348 L 300 357 L 420 357 Z " fill="rgb(104,115,122)"/><path d=" M 277 357 L 268 306 L 107 357 L 277 357 Z " fill="rgb(104,115,122)"/></g><g><path d=" M 158 299 L 170.306 348.222 L 167.229 351.299 L 148.771 351.299 L 145.694 348.222 L 158 299 Z " fill="rgb(98,162,149)"/><path d=" M 161.076 351.299 L 161.076 354.375 L 154.924 354.375 L 154.924 351.299" fill="rgb(157,141,126)"/></g><g><path d=" M 183 304 L 193.083 344.333 L 190.563 346.854 L 175.438 346.854 L 172.917 344.333 L 183 304 Z " fill="rgb(98,162,149)"/><path d=" M 185.521 346.854 L 185.521 349.375 L 180.479 349.375 L 180.479 346.854" fill="rgb(157,141,126)"/></g><g><path d=" M 619 325.406 L 614.292 344.24 L 615.469 345.417 L 622.531 345.417 L 623.708 344.24 L 619 325.406 Z " fill="rgb(98,162,149)"/><path d=" M 617.823 345.417 L 617.823 346.594 L 620.177 346.594 L 620.177 345.417" fill="rgb(157,141,126)"/></g><g><path d=" M 638 319.062 L 630.028 350.951 L 632.021 352.944 L 643.979 352.944 L 645.972 350.951 L 638 319.062 Z " fill="rgb(98,162,149)"/><path d=" M 636.007 352.944 L 636.007 354.938 L 639.993 354.938 L 639.993 352.944" fill="rgb(157,141,126)"/></g><g><path d=" M 602.5 308.75 L 592 350.75 L 594.625 353.375 L 610.375 353.375 L 613 350.75 L 602.5 308.75 Z " fill="rgb(98,162,149)"/><path d=" M 599.875 353.375 L 599.875 356 L 605.125 356 L 605.125 353.375" fill="rgb(157,141,126)"/></g></g></g></svg>