<?xml version="1.0" standalone="no"?><!-- Generator: Gravit.io --><svg xmlns="http://www.w3.org/2000/svg" xmlns:xlink="http://www.w3.org/1999/xlink" style="isolation:isolate" viewBox="0 0 800 300" width="800" height="300"><defs><clipPath id="_clipPath_e7nTTP6ZJ93b2zorJ7bza6vRa4HMa8UE"><rect width="800" height="300"/></clipPath></defs><g clip-path="url(#_clipPath_e7nTTP6ZJ93b2zorJ7bza6vRa4HMa8UE)"><path d=" M 367.814 41.138 C 366.391 33.274 355.815 27.163 343 27.163 C 339.053 27.163 335.318 27.742 331.996 28.774 C 332 28.72 332 28.666 332 28.612 C 332 17.257 319.74 8.038 304.639 8.038 C 290.727 8.038 279.227 15.862 277.515 25.975 C 274.855 25.405 271.988 25.092 269 25.092 C 255.202 25.092 244 31.758 244 39.967 C 244 40.362 244.026 40.754 244.091 41.138 L 367.814 41.138 L 367.814 41.138 Z " fill="rgb(235,235,235)"/><path d=" M 630.814 67.138 C 629.391 59.274 618.815 53.163 606 53.163 C 602.053 53.163 598.318 53.742 594.996 54.774 C 595 54.72 595 54.666 595 54.612 C 595 43.257 582.74 34.038 567.639 34.038 C 553.727 34.038 542.227 41.862 540.515 51.975 C 537.855 51.405 534.988 51.092 532 51.092 C 518.202 51.092 507 57.758 507 65.967 C 507 66.362 507.026 66.754 507.091 67.138 L 630.814 67.138 L 630.814 67.138 Z " fill="rgb(235,235,235)"/><path d=" M 320.139 317.996 L 368.139 97.996 L 448.139 167.996 L 468.139 317.996 L 320.139 317.996 Z " fill="rgb(177,195,202)"/><path d=" M 0 300 L 110 170 L 130 190 L 200 90 L 230 130 L 350 0 L 420 80 L 490 20 L 600 110 L 620 90 L 710 190 L 730 170 L 800 300" fill="rgb(206,219,225)"/><path d=" M 110 300 L 110 170 L 130 190 L 113 300 L 110 300 Z " fill="rgb(216,230,237)"/><path d=" M 221 300 L 200 90 L 230 130 L 224 300 L 221 300 Z " fill="rgb(216,230,237)"/><path d=" M 608 300 L 620 90 L 710 190 L 722 300 L 608 300 Z " fill="rgb(216,230,237)"/><path d=" M 550 300 L 490 20 L 600 110 L 588 300 L 550 300 Z " fill="rgb(216,230,237)"/><path d=" M 380 300 L 350 0 L 420 80 L 407 300 L 380 300 Z " fill="rgb(216,230,237)"/><path d=" M 50 300 L 180 170 L 200 190 L 270 130 L 330 180 L 450 80 L 530 150 L 550 130 L 590 170 L 620 150 L 770 300" fill="rgb(158,177,184)"/><path d=" M 490 300 L 450 80 L 530 150 L 527 300 L 490 300 Z " fill="rgb(177,195,202)"/><path d=" M 620 150 L 622 158 L 626 156 L 620 150 Z " fill="rgb(177,195,202)"/><path d=" M 577 300 L 550 130 L 590 170 L 592 185 L 588 300 L 577 300 Z " fill="rgb(177,195,202)"/><path d=" M 201 300 L 180 170 L 200 190 L 204 300 L 201 300 Z " fill="rgb(177,195,202)"/><path d=" M 9 300 L 82 214 L 112 245 L 190 207 L 338 291 L 510 214 L 537 234 L 641 141 L 784 300" fill="rgb(99,110,116)"/><path d=" M 60 300 L 82 214 L 112 245 L 126 300 L 60 300 Z " fill="rgb(104,115,122)"/><path d=" M 297 300 L 270 130 L 330 180 L 332 300 L 297 300 Z " fill="rgb(177,195,202)"/><path d=" M 224 300 L 190 207 L 354 300 L 224 300 Z " fill="rgb(104,115,122)"/><path d=" M 544 300 L 537 234 L 510 214 L 480 300 L 544 300 Z " fill="rgb(104,115,122)"/><g><path d=" M 136.333 260.5 L 128 293.833 L 130.083 295.917 L 142.583 295.917 L 144.667 293.833 L 136.333 260.5 Z " fill="rgb(98,162,149)"/><path d=" M 134.25 295.917 L 134.25 298 L 138.417 298 L 138.417 295.917" fill="rgb(157,141,126)"/></g><g><path d=" M 238.541 266.294 L 261.713 290.788 L 264.136 291.068 L 268.816 285.063 L 267.952 282.782 L 238.541 266.294 Z " fill="rgb(99,110,116)"/><path d=" M 265.696 289.066 L 267.339 290.347 L 268.899 288.345 L 267.256 287.065" fill="rgb(157,141,126)"/></g><g><path d=" M 263.436 252.238 L 278.976 267.898 L 280.478 268.198 L 283.028 264.939 L 282.376 263.553 L 263.436 252.238 Z " fill="rgb(99,110,116)"/><path d=" M 281.328 267.112 L 282.406 267.955 L 283.256 266.868 L 282.178 266.025" fill="rgb(157,141,126)"/></g><g><path d=" M 258.757 256.063 L 289.368 287.237 L 292.357 287.817 L 297.525 281.248 L 296.258 278.479 L 258.757 256.063 Z " fill="rgb(99,110,116)"/><path d=" M 294.08 285.627 L 296.208 287.302 L 297.931 285.112 L 295.803 283.438" fill="rgb(157,141,126)"/></g><g><path d=" M 289.757 264.063 L 320.368 295.237 L 323.357 295.817 L 328.525 289.248 L 327.258 286.479 L 289.757 264.063 Z " fill="rgb(99,110,116)"/><path d=" M 325.08 293.627 L 327.208 295.302 L 328.931 293.112 L 326.803 291.438" fill="rgb(157,141,126)"/></g><g><path d=" M 270.333 257.5 L 262 290.833 L 264.083 292.917 L 276.583 292.917 L 278.667 290.833 L 270.333 257.5 Z " fill="rgb(98,162,149)"/><path d=" M 268.25 292.917 L 268.25 295 L 272.417 295 L 272.417 292.917" fill="rgb(157,141,126)"/></g><g><path d=" M 444.667 252.375 L 436.333 285.708 L 438.417 287.792 L 450.917 287.792 L 453 285.708 L 444.667 252.375 Z " fill="rgb(98,162,149)"/><path d=" M 442.583 287.792 L 442.583 289.875 L 446.75 289.875 L 446.75 287.792" fill="rgb(157,141,126)"/></g><g><path d=" M 362.667 260.375 L 354.333 293.708 L 356.417 295.792 L 368.917 295.792 L 371 293.708 L 362.667 260.375 Z " fill="rgb(98,162,149)"/><path d=" M 360.583 295.792 L 360.583 297.875 L 364.75 297.875 L 364.75 295.792" fill="rgb(157,141,126)"/></g><g><path d=" M 555.667 259 L 547.333 292.333 L 549.417 294.417 L 561.917 294.417 L 564 292.333 L 555.667 259 Z " fill="rgb(98,162,149)"/><path d=" M 553.583 294.417 L 553.583 296.5 L 557.75 296.5 L 557.75 294.417" fill="rgb(157,141,126)"/></g><g><path d=" M 111.553 258.786 L 113.443 280.767 L 114.405 281.96 L 118.451 281.092 L 118.838 279.61 L 111.553 258.786 Z " fill="rgb(99,110,116)"/><path d=" M 115.753 281.671 L 116.04 283.008 L 117.389 282.719 L 117.102 281.381" fill="rgb(157,141,126)"/></g><g><path d=" M 118.806 260.375 L 113.333 282.264 L 114.701 283.632 L 122.91 283.632 L 124.278 282.264 L 118.806 260.375 Z " fill="rgb(98,162,149)"/><path d=" M 117.437 283.632 L 117.437 285 L 120.174 285 L 120.174 283.632" fill="rgb(157,141,126)"/></g><g><path d=" M 282.806 244.375 L 277.333 266.264 L 278.701 267.632 L 286.91 267.632 L 288.278 266.264 L 282.806 244.375 Z " fill="rgb(98,162,149)"/><path d=" M 281.438 267.632 L 281.438 269 L 284.174 269 L 284.174 267.632" fill="rgb(157,141,126)"/></g><g><path d=" M 239.436 247.238 L 254.976 262.898 L 256.478 263.198 L 259.028 259.939 L 258.376 258.553 L 239.436 247.238 Z " fill="rgb(99,110,116)"/><path d=" M 257.328 262.112 L 258.406 262.955 L 259.256 261.868 L 258.178 261.025" fill="rgb(157,141,126)"/></g><g><path d=" M 514.619 269.476 L 516.237 291.575 L 517.386 292.712 L 522.415 291.539 L 522.943 290.012 L 514.619 269.476 Z " fill="rgb(99,110,116)"/><path d=" M 519.063 292.321 L 519.373 293.653 L 521.049 293.262 L 520.739 291.93" fill="rgb(157,141,126)"/></g><g><path d=" M 526.619 256.476 L 528.237 278.575 L 529.386 279.712 L 534.415 278.539 L 534.943 277.012 L 526.619 256.476 Z " fill="rgb(99,110,116)"/><path d=" M 531.063 279.321 L 531.373 280.653 L 533.049 280.262 L 532.739 278.93" fill="rgb(157,141,126)"/></g><g><path d=" M 100.553 269.786 L 102.443 291.767 L 103.405 292.96 L 107.451 292.092 L 107.838 290.61 L 100.553 269.786 Z " fill="rgb(99,110,116)"/><path d=" M 104.753 292.671 L 105.04 294.008 L 106.389 293.719 L 106.102 292.381" fill="rgb(157,141,126)"/></g><g><path d=" M 258.806 239.375 L 253.333 261.264 L 254.701 262.632 L 262.91 262.632 L 264.278 261.264 L 258.806 239.375 Z " fill="rgb(98,162,149)"/><path d=" M 257.438 262.632 L 257.438 264 L 260.174 264 L 260.174 262.632" fill="rgb(157,141,126)"/></g><g><path d=" M 379.806 261.375 L 374.333 283.264 L 375.701 284.632 L 383.91 284.632 L 385.278 283.264 L 379.806 261.375 Z " fill="rgb(98,162,149)"/><path d=" M 378.438 284.632 L 378.438 286 L 381.174 286 L 381.174 284.632" fill="rgb(157,141,126)"/></g><g><path d=" M 107.806 271.375 L 102.333 293.264 L 103.701 294.632 L 111.91 294.632 L 113.278 293.264 L 107.806 271.375 Z " fill="rgb(98,162,149)"/><path d=" M 106.438 294.632 L 106.438 296 L 109.174 296 L 109.174 294.632" fill="rgb(157,141,126)"/></g><g><path d=" M 533.528 257.625 L 528.056 279.514 L 529.424 280.882 L 537.632 280.882 L 539 279.514 L 533.528 257.625 Z " fill="rgb(98,162,149)"/><path d=" M 532.16 280.882 L 532.16 282.25 L 534.896 282.25 L 534.896 280.882" fill="rgb(157,141,126)"/></g><g><path d=" M 482.528 247.625 L 477.056 269.514 L 478.424 270.882 L 486.632 270.882 L 488 269.514 L 482.528 247.625 Z " fill="rgb(98,162,149)"/><path d=" M 481.16 270.882 L 481.16 272.25 L 483.896 272.25 L 483.896 270.882" fill="rgb(157,141,126)"/></g><g><path d=" M 521.528 270 L 516.056 291.889 L 517.424 293.257 L 525.632 293.257 L 527 291.889 L 521.528 270 Z " fill="rgb(98,162,149)"/><path d=" M 520.16 293.257 L 520.16 294.625 L 522.896 294.625 L 522.896 293.257" fill="rgb(157,141,126)"/></g><g><path d=" M 329.167 249.625 L 318.333 292.958 L 321.042 295.667 L 337.292 295.667 L 340 292.958 L 329.167 249.625 Z " fill="rgb(98,162,149)"/><path d=" M 326.458 295.667 L 326.458 298.375 L 331.875 298.375 L 331.875 295.667" fill="rgb(157,141,126)"/></g><path d=" M 722 300 L 730 170 L 800 300 L 722 300 Z " fill="rgb(216,230,237)"/><g><path d=" M 299.167 242.625 L 288.333 285.958 L 291.042 288.667 L 307.292 288.667 L 310 285.958 L 299.167 242.625 Z " fill="rgb(98,162,149)"/><path d=" M 296.458 288.667 L 296.458 291.375 L 301.875 291.375 L 301.875 288.667" fill="rgb(157,141,126)"/></g><g><path d=" M 466.167 247.625 L 455.333 290.958 L 458.042 293.667 L 474.292 293.667 L 477 290.958 L 466.167 247.625 Z " fill="rgb(98,162,149)"/><path d=" M 463.458 293.667 L 463.458 296.375 L 468.875 296.375 L 468.875 293.667" fill="rgb(157,141,126)"/></g><path d=" M 784 300 L 641 141 L 665 300 L 784 300 Z " fill="rgb(104,115,122)"/><path d=" M 346.523 13.405 C 344.732 12.404 343.715 10.809 344.253 9.845 C 344.792 8.882 346.683 8.912 348.474 9.914" fill="none" vector-effect="non-scaling-stroke" stroke-width="0.1" stroke="rgb(216,230,237)" stroke-linejoin="miter" stroke-linecap="butt" stroke-miterlimit="3"/><path d=" M 342.62 20.389 C 340.829 19.387 339.812 17.792 340.35 16.829 C 340.889 15.865 342.78 15.896 344.571 16.897" fill="none" vector-effect="non-scaling-stroke" stroke-width="0.1" stroke="rgb(216,230,237)" stroke-linejoin="miter" stroke-linecap="butt" stroke-miterlimit="3"/><path d=" M 338.717 27.372 C 336.926 26.371 335.909 24.776 336.447 23.812 C 336.986 22.849 338.877 22.879 340.668 23.88" fill="none" vector-effect="non-scaling-stroke" stroke-width="0.1" stroke="rgb(216,230,237)" stroke-linejoin="miter" stroke-linecap="butt" stroke-miterlimit="3"/><path d=" M 334.814 34.355 C 333.023 33.354 332.006 31.759 332.544 30.795 C 333.083 29.832 334.974 29.862 336.766 30.864" fill="none" vector-effect="non-scaling-stroke" stroke-width="0.1" stroke="rgb(216,230,237)" stroke-linejoin="miter" stroke-linecap="butt" stroke-miterlimit="3"/><path d=" M 330.814 41.355 C 329.023 40.354 328.006 38.759 328.544 37.795 C 329.083 36.832 330.974 36.862 332.766 37.864" fill="none" vector-effect="non-scaling-stroke" stroke-width="0.1" stroke="rgb(216,230,237)" stroke-linejoin="miter" stroke-linecap="butt" stroke-miterlimit="3"/><path d=" M 343.945 16.547 C 345.736 17.548 347.627 17.578 348.166 16.615 C 348.704 15.651 347.687 14.056 345.896 13.055" fill="none" vector-effect="non-scaling-stroke" stroke-width="0.1" stroke="rgb(216,230,237)" stroke-linejoin="miter" stroke-linecap="butt" stroke-miterlimit="3"/><path d=" M 340.042 23.53 C 341.833 24.531 343.724 24.562 344.263 23.598 C 344.801 22.634 343.784 21.039 341.993 20.038" fill="none" vector-effect="non-scaling-stroke" stroke-width="0.1" stroke="rgb(216,230,237)" stroke-linejoin="miter" stroke-linecap="butt" stroke-miterlimit="3"/><path d=" M 336.139 30.513 C 337.93 31.514 339.821 31.545 340.36 30.581 C 340.899 29.618 339.881 28.023 338.09 27.022" fill="none" vector-effect="non-scaling-stroke" stroke-width="0.1" stroke="rgb(216,230,237)" stroke-linejoin="miter" stroke-linecap="butt" stroke-miterlimit="3"/><path d=" M 332.139 37.513 C 333.93 38.514 335.821 38.545 336.36 37.581 C 336.899 36.618 335.881 35.023 334.09 34.022" fill="none" vector-effect="non-scaling-stroke" stroke-width="0.1" stroke="rgb(216,230,237)" stroke-linejoin="miter" stroke-linecap="butt" stroke-miterlimit="3"/><path d=" M 328.139 44.513 C 329.93 45.514 331.821 45.545 332.36 44.581 C 332.899 43.618 331.881 42.023 330.09 41.022" fill="none" vector-effect="non-scaling-stroke" stroke-width="0.1" stroke="rgb(216,230,237)" stroke-linejoin="miter" stroke-linecap="butt" stroke-miterlimit="3"/><path d=" M 346.523 13.405 C 344.732 12.404 343.715 10.809 344.253 9.845 C 344.792 8.882 346.683 8.912 348.474 9.914" fill="none" vector-effect="non-scaling-stroke" stroke-width="1" stroke="rgb(216,230,237)" stroke-linejoin="miter" stroke-linecap="butt" stroke-miterlimit="3"/><path d=" M 342.62 20.389 C 340.829 19.387 339.812 17.792 340.35 16.829 C 340.889 15.865 342.78 15.896 344.571 16.897" fill="none" vector-effect="non-scaling-stroke" stroke-width="1" stroke="rgb(216,230,237)" stroke-linejoin="miter" stroke-linecap="butt" stroke-miterlimit="3"/><path d=" M 338.717 27.372 C 336.926 26.371 335.909 24.776 336.447 23.812 C 336.986 22.849 338.877 22.879 340.668 23.88" fill="none" vector-effect="non-scaling-stroke" stroke-width="1" stroke="rgb(216,230,237)" stroke-linejoin="miter" stroke-linecap="butt" stroke-miterlimit="3"/><path d=" M 334.814 34.355 C 333.023 33.354 332.006 31.759 332.544 30.795 C 333.083 29.832 334.974 29.862 336.766 30.864" fill="none" vector-effect="non-scaling-stroke" stroke-width="1" stroke="rgb(216,230,237)" stroke-linejoin="miter" stroke-linecap="butt" stroke-miterlimit="3"/><path d=" M 330.814 41.355 C 329.023 40.354 328.006 38.759 328.544 37.795 C 329.083 36.832 330.974 36.862 332.766 37.864" fill="none" vector-effect="non-scaling-stroke" stroke-width="1" stroke="rgb(216,230,237)" stroke-linejoin="miter" stroke-linecap="butt" stroke-miterlimit="3"/><path d=" M 326.814 48.355 C 325.023 47.354 324.006 45.759 324.544 44.795 C 325.083 43.832 326.974 43.862 328.766 44.864" fill="none" vector-effect="non-scaling-stroke" stroke-width="1" stroke="rgb(216,230,237)" stroke-linejoin="miter" stroke-linecap="butt" stroke-miterlimit="3"/><path d=" M 322.814 55.355 C 321.023 54.354 320.006 52.759 320.544 51.795 C 321.083 50.832 322.974 50.862 324.766 51.864" fill="none" vector-effect="non-scaling-stroke" stroke-width="1" stroke="rgb(216,230,237)" stroke-linejoin="miter" stroke-linecap="butt" stroke-miterlimit="3"/><path d=" M 318.814 62.355 C 317.023 61.354 316.006 59.759 316.544 58.795 C 317.083 57.832 318.974 57.862 320.766 58.864" fill="none" vector-effect="non-scaling-stroke" stroke-width="1" stroke="rgb(216,230,237)" stroke-linejoin="miter" stroke-linecap="butt" stroke-miterlimit="3"/><path d=" M 314.814 69.355 C 313.023 68.354 312.006 66.759 312.544 65.795 C 313.083 64.832 314.974 64.862 316.766 65.864" fill="none" vector-effect="non-scaling-stroke" stroke-width="1" stroke="rgb(216,230,237)" stroke-linejoin="miter" stroke-linecap="butt" stroke-miterlimit="3"/><path d=" M 343.945 16.547 C 345.736 17.548 347.627 17.578 348.166 16.615 C 348.704 15.651 347.687 14.056 345.896 13.055" fill="none" vector-effect="non-scaling-stroke" stroke-width="1" stroke="rgb(216,230,237)" stroke-linejoin="miter" stroke-linecap="butt" stroke-miterlimit="3"/><path d=" M 340.042 23.53 C 341.833 24.531 343.724 24.562 344.263 23.598 C 344.801 22.634 343.784 21.039 341.993 20.038" fill="none" vector-effect="non-scaling-stroke" stroke-width="1" stroke="rgb(216,230,237)" stroke-linejoin="miter" stroke-linecap="butt" stroke-miterlimit="3"/><path d=" M 336.139 30.513 C 337.93 31.514 339.821 31.545 340.36 30.581 C 340.899 29.618 339.881 28.023 338.09 27.022" fill="none" vector-effect="non-scaling-stroke" stroke-width="1" stroke="rgb(216,230,237)" stroke-linejoin="miter" stroke-linecap="butt" stroke-miterlimit="3"/><path d=" M 332.139 37.513 C 333.93 38.514 335.821 38.545 336.36 37.581 C 336.899 36.618 335.881 35.023 334.09 34.022" fill="none" vector-effect="non-scaling-stroke" stroke-width="1" stroke="rgb(216,230,237)" stroke-linejoin="miter" stroke-linecap="butt" stroke-miterlimit="3"/><path d=" M 328.139 44.513 C 329.93 45.514 331.821 45.545 332.36 44.581 C 332.899 43.618 331.881 42.023 330.09 41.022" fill="none" vector-effect="non-scaling-stroke" stroke-width="1" stroke="rgb(216,230,237)" stroke-linejoin="miter" stroke-linecap="butt" stroke-miterlimit="3"/><path d=" M 324.139 51.513 C 325.93 52.514 327.821 52.545 328.36 51.581 C 328.899 50.618 327.881 49.023 326.09 48.022" fill="none" vector-effect="non-scaling-stroke" stroke-width="1" stroke="rgb(216,230,237)" stroke-linejoin="miter" stroke-linecap="butt" stroke-miterlimit="3"/><path d=" M 320.139 58.513 C 321.93 59.514 323.821 59.545 324.36 58.581 C 324.899 57.618 323.881 56.023 322.09 55.022" fill="none" vector-effect="non-scaling-stroke" stroke-width="1" stroke="rgb(216,230,237)" stroke-linejoin="miter" stroke-linecap="butt" stroke-miterlimit="3"/><path d=" M 316.151 65.492 C 317.942 66.493 319.833 66.523 320.372 65.56 C 320.91 64.596 319.893 63.001 318.102 62" fill="none" vector-effect="non-scaling-stroke" stroke-width="1" stroke="rgb(216,230,237)" stroke-linejoin="miter" stroke-linecap="butt" stroke-miterlimit="3"/><path d=" M 312.151 72.492 C 313.942 73.493 315.833 73.523 316.372 72.56 C 316.91 71.596 315.893 70.001 314.102 69" fill="none" vector-effect="non-scaling-stroke" stroke-width="1" stroke="rgb(216,230,237)" stroke-linejoin="miter" stroke-linecap="butt" stroke-miterlimit="3"/><path d=" M 346.463 13.443 C 344.432 13.151 342.91 12.028 343.066 10.935 C 343.223 9.843 344.999 9.192 347.031 9.483" fill="none" vector-effect="non-scaling-stroke" stroke-width="1" stroke="rgb(216,230,237)" stroke-linejoin="miter" stroke-linecap="butt" stroke-miterlimit="3"/><path d=" M 345.327 21.362 C 343.296 21.07 341.774 19.947 341.931 18.854 C 342.087 17.762 343.864 17.111 345.895 17.402" fill="none" vector-effect="non-scaling-stroke" stroke-width="1" stroke="rgb(216,230,237)" stroke-linejoin="miter" stroke-linecap="butt" stroke-miterlimit="3"/><path d=" M 344.192 29.281 C 342.16 28.989 340.638 27.866 340.795 26.773 C 340.952 25.681 342.728 25.03 344.759 25.321" fill="none" vector-effect="non-scaling-stroke" stroke-width="1" stroke="rgb(216,230,237)" stroke-linejoin="miter" stroke-linecap="butt" stroke-miterlimit="3"/><path d=" M 343.056 37.2 C 341.025 36.908 339.503 35.785 339.659 34.692 C 339.816 33.599 341.592 32.949 343.624 33.24" fill="none" vector-effect="non-scaling-stroke" stroke-width="1" stroke="rgb(216,230,237)" stroke-linejoin="miter" stroke-linecap="butt" stroke-miterlimit="3"/><path d=" M 341.836 45.169 C 339.804 44.878 338.282 43.754 338.439 42.662 C 338.596 41.569 340.372 40.918 342.403 41.21" fill="none" vector-effect="non-scaling-stroke" stroke-width="1" stroke="rgb(216,230,237)" stroke-linejoin="miter" stroke-linecap="butt" stroke-miterlimit="3"/><path d=" M 340.615 53.138 C 338.584 52.847 337.062 51.724 337.219 50.631 C 337.375 49.538 339.152 48.888 341.183 49.179" fill="none" vector-effect="non-scaling-stroke" stroke-width="1" stroke="rgb(216,230,237)" stroke-linejoin="miter" stroke-linecap="butt" stroke-miterlimit="3"/><path d=" M 339.395 61.108 C 337.364 60.817 335.842 59.693 335.999 58.6 C 336.155 57.508 337.932 56.857 339.963 57.148" fill="none" vector-effect="non-scaling-stroke" stroke-width="1" stroke="rgb(216,230,237)" stroke-linejoin="miter" stroke-linecap="butt" stroke-miterlimit="3"/><path d=" M 338.175 69.077 C 336.143 68.786 334.622 67.662 334.778 66.57 C 334.935 65.477 336.711 64.826 338.743 65.118" fill="none" vector-effect="non-scaling-stroke" stroke-width="1" stroke="rgb(216,230,237)" stroke-linejoin="miter" stroke-linecap="butt" stroke-miterlimit="3"/><path d=" M 336.954 77.047 C 334.923 76.755 333.401 75.632 333.558 74.539 C 333.715 73.446 335.491 72.796 337.522 73.087" fill="none" vector-effect="non-scaling-stroke" stroke-width="1" stroke="rgb(216,230,237)" stroke-linejoin="miter" stroke-linecap="butt" stroke-miterlimit="3"/><path d=" M 345.184 17.3 C 347.216 17.592 348.992 16.941 349.149 15.848 C 349.305 14.756 347.783 13.632 345.752 13.341" fill="none" vector-effect="non-scaling-stroke" stroke-width="1" stroke="rgb(216,230,237)" stroke-linejoin="miter" stroke-linecap="butt" stroke-miterlimit="3"/><path d=" M 344.049 25.219 C 346.08 25.511 347.856 24.86 348.013 23.767 C 348.17 22.675 346.648 21.551 344.616 21.26" fill="none" vector-effect="non-scaling-stroke" stroke-width="1" stroke="rgb(216,230,237)" stroke-linejoin="miter" stroke-linecap="butt" stroke-miterlimit="3"/><path d=" M 342.913 33.138 C 344.944 33.43 346.721 32.779 346.877 31.686 C 347.034 30.594 345.512 29.47 343.481 29.179" fill="none" vector-effect="non-scaling-stroke" stroke-width="1" stroke="rgb(216,230,237)" stroke-linejoin="miter" stroke-linecap="butt" stroke-miterlimit="3"/><path d=" M 341.693 41.108 C 343.724 41.399 345.5 40.748 345.657 39.656 C 345.814 38.563 344.292 37.439 342.26 37.148" fill="none" vector-effect="non-scaling-stroke" stroke-width="1" stroke="rgb(216,230,237)" stroke-linejoin="miter" stroke-linecap="butt" stroke-miterlimit="3"/><path d=" M 340.472 49.077 C 342.504 49.368 344.28 48.718 344.437 47.625 C 344.593 46.532 343.071 45.409 341.04 45.118" fill="none" vector-effect="non-scaling-stroke" stroke-width="1" stroke="rgb(216,230,237)" stroke-linejoin="miter" stroke-linecap="butt" stroke-miterlimit="3"/><path d=" M 339.252 57.046 C 341.283 57.338 343.06 56.687 343.216 55.594 C 343.373 54.502 341.851 53.378 339.82 53.087" fill="none" vector-effect="non-scaling-stroke" stroke-width="1" stroke="rgb(216,230,237)" stroke-linejoin="miter" stroke-linecap="butt" stroke-miterlimit="3"/><path d=" M 338.032 65.016 C 340.063 65.307 341.839 64.657 341.996 63.564 C 342.153 62.471 340.631 61.348 338.6 61.056" fill="none" vector-effect="non-scaling-stroke" stroke-width="1" stroke="rgb(216,230,237)" stroke-linejoin="miter" stroke-linecap="butt" stroke-miterlimit="3"/><path d=" M 336.815 72.961 C 338.846 73.252 340.623 72.601 340.779 71.509 C 340.936 70.416 339.414 69.293 337.383 69.001" fill="none" vector-effect="non-scaling-stroke" stroke-width="1" stroke="rgb(216,230,237)" stroke-linejoin="miter" stroke-linecap="butt" stroke-miterlimit="3"/><path d=" M 335.595 80.93 C 337.626 81.221 339.402 80.571 339.559 79.478 C 339.716 78.386 338.194 77.262 336.162 76.971" fill="none" vector-effect="non-scaling-stroke" stroke-width="1" stroke="rgb(216,230,237)" stroke-linejoin="miter" stroke-linecap="butt" stroke-miterlimit="3"/><path d=" M 340.993 32.512 C 339.025 31.931 337.681 30.6 337.994 29.541 C 338.306 28.482 340.158 28.095 342.126 28.676" fill="none" vector-effect="non-scaling-stroke" stroke-width="1" stroke="rgb(216,230,237)" stroke-linejoin="miter" stroke-linecap="butt" stroke-miterlimit="3"/><path d=" M 338.726 40.185 C 336.758 39.603 335.414 38.272 335.727 37.213 C 336.04 36.155 337.891 35.767 339.859 36.349" fill="none" vector-effect="non-scaling-stroke" stroke-width="1" stroke="rgb(216,230,237)" stroke-linejoin="miter" stroke-linecap="butt" stroke-miterlimit="3"/><path d=" M 336.46 47.857 C 334.492 47.276 333.148 45.944 333.461 44.886 C 333.773 43.827 335.625 43.439 337.593 44.021" fill="none" vector-effect="non-scaling-stroke" stroke-width="1" stroke="rgb(216,230,237)" stroke-linejoin="miter" stroke-linecap="butt" stroke-miterlimit="3"/><path d=" M 334.193 55.529 C 332.225 54.948 330.881 53.616 331.194 52.558 C 331.507 51.499 333.359 51.112 335.327 51.693" fill="none" vector-effect="non-scaling-stroke" stroke-width="1" stroke="rgb(216,230,237)" stroke-linejoin="miter" stroke-linecap="butt" stroke-miterlimit="3"/><path d=" M 331.836 63.239 C 329.868 62.658 328.524 61.326 328.837 60.268 C 329.15 59.209 331.001 58.822 332.969 59.403" fill="none" vector-effect="non-scaling-stroke" stroke-width="1" stroke="rgb(216,230,237)" stroke-linejoin="miter" stroke-linecap="butt" stroke-miterlimit="3"/><path d=" M 329.479 70.949 C 327.511 70.368 326.167 69.036 326.479 67.978 C 326.792 66.919 328.644 66.531 330.612 67.113" fill="none" vector-effect="non-scaling-stroke" stroke-width="1" stroke="rgb(216,230,237)" stroke-linejoin="miter" stroke-linecap="butt" stroke-miterlimit="3"/><path d=" M 327.121 78.659 C 325.153 78.078 323.809 76.746 324.122 75.687 C 324.435 74.629 326.286 74.241 328.254 74.823" fill="none" vector-effect="non-scaling-stroke" stroke-width="1" stroke="rgb(216,230,237)" stroke-linejoin="miter" stroke-linecap="butt" stroke-miterlimit="3"/><path d=" M 324.764 86.369 C 322.796 85.787 321.452 84.456 321.765 83.397 C 322.077 82.339 323.929 81.951 325.897 82.533" fill="none" vector-effect="non-scaling-stroke" stroke-width="1" stroke="rgb(216,230,237)" stroke-linejoin="miter" stroke-linecap="butt" stroke-miterlimit="3"/><path d=" M 322.406 94.079 C 320.438 93.497 319.094 92.166 319.407 91.107 C 319.72 90.049 321.571 89.661 323.54 90.243" fill="none" vector-effect="non-scaling-stroke" stroke-width="1" stroke="rgb(216,230,237)" stroke-linejoin="miter" stroke-linecap="butt" stroke-miterlimit="3"/><path d=" M 339.171 36.145 C 341.139 36.727 342.99 36.339 343.303 35.28 C 343.616 34.222 342.272 32.89 340.304 32.309" fill="none" vector-effect="non-scaling-stroke" stroke-width="1" stroke="rgb(216,230,237)" stroke-linejoin="miter" stroke-linecap="butt" stroke-miterlimit="3"/><path d=" M 336.904 43.817 C 338.872 44.399 340.724 44.011 341.037 42.953 C 341.349 41.894 340.006 40.563 338.038 39.981" fill="none" vector-effect="non-scaling-stroke" stroke-width="1" stroke="rgb(216,230,237)" stroke-linejoin="miter" stroke-linecap="butt" stroke-miterlimit="3"/><path d=" M 334.638 51.49 C 336.606 52.071 338.458 51.684 338.77 50.625 C 339.083 49.566 337.739 48.235 335.771 47.653" fill="none" vector-effect="non-scaling-stroke" stroke-width="1" stroke="rgb(216,230,237)" stroke-linejoin="miter" stroke-linecap="butt" stroke-miterlimit="3"/><path d=" M 332.28 59.2 C 334.248 59.781 336.1 59.393 336.413 58.335 C 336.726 57.276 335.382 55.945 333.414 55.363" fill="none" vector-effect="non-scaling-stroke" stroke-width="1" stroke="rgb(216,230,237)" stroke-linejoin="miter" stroke-linecap="butt" stroke-miterlimit="3"/><path d=" M 329.923 66.909 C 331.891 67.491 333.743 67.103 334.055 66.045 C 334.368 64.986 333.024 63.655 331.056 63.073" fill="none" vector-effect="non-scaling-stroke" stroke-width="1" stroke="rgb(216,230,237)" stroke-linejoin="miter" stroke-linecap="butt" stroke-miterlimit="3"/><path d=" M 327.566 74.619 C 329.534 75.201 331.385 74.813 331.698 73.755 C 332.011 72.696 330.667 71.365 328.699 70.783" fill="none" vector-effect="non-scaling-stroke" stroke-width="1" stroke="rgb(216,230,237)" stroke-linejoin="miter" stroke-linecap="butt" stroke-miterlimit="3"/><path d=" M 325.208 82.329 C 327.176 82.911 329.028 82.523 329.341 81.465 C 329.653 80.406 328.309 79.074 326.341 78.493" fill="none" vector-effect="non-scaling-stroke" stroke-width="1" stroke="rgb(216,230,237)" stroke-linejoin="miter" stroke-linecap="butt" stroke-miterlimit="3"/><path d=" M 322.858 90.015 C 324.826 90.597 326.677 90.209 326.99 89.151 C 327.303 88.092 325.959 86.761 323.991 86.179" fill="none" vector-effect="non-scaling-stroke" stroke-width="1" stroke="rgb(216,230,237)" stroke-linejoin="miter" stroke-linecap="butt" stroke-miterlimit="3"/><path d=" M 320.5 97.725 C 322.468 98.307 324.32 97.919 324.633 96.861 C 324.945 95.802 323.601 94.471 321.633 93.889" fill="none" vector-effect="non-scaling-stroke" stroke-width="1" stroke="rgb(216,230,237)" stroke-linejoin="miter" stroke-linecap="butt" stroke-miterlimit="3"/><path d=" M 482.334 47.57 C 484.682 43.206 486 38.246 486 32.991 C 486 15.386 471.213 1.092 453 1.092 C 444.836 1.092 437.36 3.964 431.609 8.735 C 426.503 4.131 420.033 1.389 413 1.389 C 401.09 1.389 390.792 9.253 385.94 20.629 C 380.511 17.841 373.784 16.185 366.5 16.185 C 348.563 16.185 334 26.226 334 38.593 L 334 38.593 C 334 41.787 334.972 44.826 336.743 47.57 L 482.334 47.57 L 482.334 47.57 Z " fill="rgb(235,235,235)"/><path d=" M 105.901 56 C 104.67 53.843 104 51.488 104 49.023 C 104 38.55 116.098 30.047 131 30.047 C 135.768 30.047 140.249 30.917 144.128 32.456 C 147.456 22.573 157.975 15.355 170.419 15.355 C 182.052 15.355 192.003 21.663 195.974 30.557 C 199.499 27.853 203.826 26.263 208.5 26.263 C 218.374 26.263 226.703 33.359 229.214 43.017 C 229.636 42.985 230.066 42.972 230.5 42.972 C 238.503 42.972 245 47.235 245 52.486 C 245 53.732 244.634 54.922 243.931 56 L 105.901 56 L 105.901 56 Z " fill="rgb(235,235,235)"/></g></svg>